<?xml version="1.0" standalone="no"?><!DOCTYPE svg PUBLIC "-//W3C//DTD SVG 1.1//EN" "http://www.w3.org/Graphics/SVG/1.1/DTD/svg11.dtd">
<svg t="1685414747659" class="icon" viewBox="0 0 1024 1024" version="1.1"
    xmlns="http://www.w3.org/2000/svg" p-id="25826"
    xmlns:xlink="http://www.w3.org/1999/xlink">
    <path d="M512 0c90.752 0 162.752 109.44 198.784 269.568l6.528 31.616c12.16 64.384 18.688 135.808 18.688 210.816 0 13.44-0.192 26.88-0.64 40.256 127.232-103.488 194.88-211.84 164.608-264.256-16-27.84-64.64-41.6-138.432-33.92a32 32 0 1 1-6.592-63.68C851.2 180.48 923.648 200.96 955.392 256c65.92 114.048-87.744 309.312-331.392 449.984a1245.44 1245.44 0 0 1-35.2 19.584c153.216 58.432 280.96 62.784 311.168 10.432 16.128-27.904 3.584-77.056-40.192-137.408a32 32 0 1 1 51.776-37.632c57.024 78.592 75.712 151.872 43.84 207.04-65.856 114.048-311.744 78.656-555.392-62.016a1245.44 1245.44 0 0 1-34.432-20.608l2.88 17.536C395.84 855.36 453.76 960 512 960c32.192 0 68.48-35.392 98.88-103.552a32 32 0 1 1 58.496 26.048C629.76 971.2 575.68 1024 512 1024c-90.752 0-162.752-109.44-198.784-269.568l-6.528-31.616A1148.864 1148.864 0 0 1 288 512c0-13.44 0.192-26.88 0.64-40.256l19.2-15.232-6.976 5.44c-135.04 106.368-208 220.032-176.832 274.048 16.128 27.904 64.896 41.6 139.136 33.92a32 32 0 0 1 6.656 63.616c-96.64 10.048-169.408-10.368-201.216-65.536-65.92-114.048 87.744-309.312 331.392-449.984l35.2-19.648-9.6-3.584C276.672 239.808 153.6 236.8 124.032 288c-16.064 27.84-3.648 76.736 39.808 136.896a32 32 0 0 1-51.84 37.504C55.296 384 36.864 310.976 68.608 256 134.4 141.952 380.352 177.344 624 318.016l17.344 10.24 17.024 10.368-2.816-17.536C628.16 168.64 570.24 64 512 64c-32.128 0-68.288 35.2-98.624 102.976a32 32 0 1 1-58.432-26.24C394.496 52.608 448.512 0 512 0z m0.064 331.328l13.312-6.336a1149.44 1149.44 0 0 0-145.28 80.256l-24.512 16.32v0.128l1.152-14.784a1149.44 1149.44 0 0 0-1.216 195.456l-12.16-8.448A1149.44 1149.44 0 0 0 512 692.608l-13.248 6.4a1149.44 1149.44 0 0 0 145.216-80.256l24.384-16.384 1.6-19.84a1167.488 1167.488 0 0 0 0.512-131.456l-1.92-29.376-16.448-11.136a1167.488 1167.488 0 0 0-113.472-66.112l-26.496-13.12z" fill="#3c37ff" p-id="25827"></path>
</svg>